Coordinates
version=1
nRows=19
nColumns=24
inDegrees=yes

Units are S.I. units (second, meters, Newtons, ...)
Angles are in degrees.

endheader
time	pelvis_tilt	pelvis_list	pelvis_rotation	pelvis_tx	pelvis_ty	pelvis_tz	hip_flexion_r	hip_adduction_r	hip_rotation_r	knee_angle_r	ankle_angle_r	subtalar_angle_r	mtp_angle_r	hip_flexion_l	hip_adduction_l	hip_rotation_l	knee_angle_l	ankle_angle_l	subtalar_angle_l	mtp_angle_l	lumbar_extension	lumbar_bending	lumbar_rotation
      1.13383333	     -1.70985139	      3.94410343	     -1.65466903	      0.13169799	      0.90439459	      0.33172417	     20.67589542	     -7.15302885	     -7.14293506	    -76.31543143	     -0.50193222	      6.08526294	      6.22006811	     12.46975992	      7.83452393	     -3.18408243	    -20.99678261	     13.12544719	     -6.63487804	      0.81441755	     -6.99314490	     -6.19190560	      0.83188642
      1.13800000	     -1.77884765	      3.78072027	     -1.55906356	      0.13706576	      0.90538770	      0.33153135	     21.40237611	     -6.90962679	     -7.18898671	    -76.04896365	     -0.14075190	      5.84252255	      6.17212459	     11.86610505	      7.69894467	     -3.05194336	    -20.41293623	     13.17393618	     -6.51855179	      0.81365063	     -6.90438943	     -6.00204775	      0.74582235
      1.14216667	     -1.83480714	      3.58858105	     -1.44026425	      0.14236155	      0.90638479	      0.33132222	     22.09065062	     -6.62468416	     -7.25210364	    -75.69864633	      0.22580583	      5.50201835	      6.07984108	     11.26341267	      7.53853113	     -2.86393563	    -19.85114061	     13.16267976	     -6.45604581	      0.80937289	     -6.90752480	     -5.75156404	      0.58704198
      1.14633333	     -1.88430386	      3.39540368	     -1.32577760	      0.14770084	      0.90738608	      0.33113213	     22.74470838	     -6.33656397	     -7.30965773	    -75.25971404	      0.56132784	      5.24351739	      5.97241018	     10.63734980	      7.37228158	     -2.68010971	    -19.25585174	     13.16485485	     -6.39216633	      0.80474440	     -6.88150216	     -5.51332770	      0.41920009
      1.15050000	     -1.91271818	      3.20064217	     -1.20531532	      0.15305210	      0.90839450	      0.33091984	     23.34908333	     -6.05330523	     -7.37623885	    -74.73965739	      0.85560804	      5.02048560	      5.78385967	      9.97672564	      7.20819126	     -2.47385864	    -18.63452561	     13.18066055	     -6.36901445	      0.79660791	     -6.87148250	     -5.27158714	      0.19759223
      1.15466667	     -1.96756457	      3.00162959	     -1.08631248	      0.15836585	      0.90931633	      0.33074196	     23.96837954	     -5.75067613	     -7.42498888	    -74.16057589	      1.24296969	      4.84902240	      5.69257879	      9.36974874	      7.02390633	     -2.32611232	    -18.05339826	     13.14807052	     -6.26520339	      0.79253644	     -6.84085363	     -5.03095385	      0.09768700
      1.15883333	     -1.97126215	      2.79760664	     -0.96259679	      0.16370778	      0.91030209	      0.33054078	     24.49869984	     -5.45309672	     -7.48709963	    -73.49102957	      1.53724100	      4.68204464	      5.53147300	      8.68350605	      6.84147224	     -2.13284855	    -17.42441915	     13.15520170	     -6.22239962	      0.78611616	     -6.86259421	     -4.77575361	     -0.09193194
      1.16300000	     -2.01525477	      2.58979128	     -0.83152708	      0.16901637	      0.91117526	      0.33035245	     25.05598299	     -5.14548117	     -7.54429630	    -72.76375702	      1.90881964	      4.56017739	      5.45968842	      8.06923584	      6.64115676	     -1.99524126	    -16.84170387	     13.10403500	     -6.12093877	      0.78287782	     -6.83468505	     -4.51716261	     -0.19253715
      1.16716667	     -2.01375284	      2.37041626	     -0.69852844	      0.17431213	      0.91209249	      0.33017219	     25.53582167	     -4.82375819	     -7.60159217	    -71.95458723	      2.21572227	      4.44139103	      5.37393946	      7.39733445	      6.43057217	     -1.81676194	    -16.23909268	     13.07605552	     -6.05369884	      0.77956506	     -6.88227517	     -4.25284914	     -0.34507646
      1.17133333	     -1.98382929	      2.17238978	     -0.56696722	      0.17962651	      0.91300151	      0.32996974	     25.96511359	     -4.53824593	     -7.66172786	    -71.08766818	      2.47886187	      4.33313388	      5.23354108	      6.67616347	      6.24715198	     -1.61544212	    -15.59428309	     13.06973245	     -6.03334442	      0.77506750	     -6.94610044	     -4.00300899	     -0.56223402
      1.17550000	     -1.99415510	      1.95598136	     -0.42261124	      0.18489638	      0.91380324	      0.32978238	     26.41512626	     -4.22608811	     -7.72264316	    -70.15442899	      2.79819096	      4.25410261	      5.15026528	      6.03632912	      6.02964200	     -1.46286726	    -15.01525027	     12.99782692	     -5.96086074	      0.77212020	     -6.96779947	     -3.73913467	     -0.69240081
      1.17966667	     -1.97309379	      1.77728277	     -0.28153971	      0.19016204	      0.91459346	      0.32955400	     26.81977371	     -3.96929699	     -7.77519573	    -69.17889500	      3.05907205	      4.20076437	      4.67027751	      5.32114089	      5.87245722	     -1.18414130	    -14.34231163	     12.91028295	     -6.10282540	      0.76090625	     -7.02544192	     -3.50264071	     -0.99581387
      1.18383333	     -1.94814010	      1.56331626	     -0.13462401	      0.19541769	      0.91534295	      0.32938270	     27.18609299	     -3.66373853	     -7.83747377	    -68.12095095	      3.32175070	      4.10004467	      4.60666987	      4.65806536	      5.64489196	     -1.07270971	    -13.78517772	     12.88350361	     -5.95770525	      0.76080306	     -7.08616630	     -3.24886389	     -1.06617032
      1.18800000	     -1.89679718	      1.36114249	      0.00868546	      0.20065978	      0.91607638	      0.32920785	     27.50691527	     -3.37520672	     -7.89320209	    -67.00981044	      3.52875126	      3.99776221	      4.53201029	      3.95415196	      5.43275897	     -0.92527777	    -13.19583111	     12.85829800	     -5.87429729	      0.76101243	     -7.18320657	     -2.99724533	     -1.21801053
      1.19216667	     -1.83763612	      1.18233249	      0.15095743	      0.20589971	      0.91674735	      0.32901134	     27.80510816	     -3.12138275	     -7.94856589	    -65.85919516	      3.70242546	      3.88210913	      4.42619825	      3.23310849	      5.24902411	     -0.74913877	    -12.58367506	     12.83704662	     -5.84709460	      0.76290342	     -7.28976212	     -2.76560172	     -1.42595383
      1.19633333	     -1.81371677	      0.98666899	      0.30926696	      0.21110525	      0.91732019	      0.32882540	     28.11473473	     -2.84979961	     -8.01219215	    -64.64197352	      3.89597219	      3.79339582	      4.36475085	      2.58905065	      5.03557609	     -0.61219232	    -12.04208696	     12.76218240	     -5.77957378	      0.76392288	     -7.34902354	     -2.51954888	     -1.56315870
      1.20050000	     -1.75475900	      0.80846255	      0.45912303	      0.21631207	      0.91787597	      0.32864241	     28.37005409	     -2.59911949	     -8.06879307	    -63.38021571	      4.02306128	      3.65882621	      4.29754225	      1.89400426	      4.84135008	     -0.45823700	    -11.47242927	     12.72432409	     -5.73154982	      0.76647877	     -7.45336436	     -2.29198542	     -1.73902702
      1.20466667	     -1.69282264	      0.64267900	      0.60801404	      0.22150531	      0.91836747	      0.32846879	     28.60595191	     -2.36291623	     -8.12065282	    -62.07553661	      4.11642786	      3.50538961	      4.22502191	      1.20104732	      4.65717929	     -0.30321281	    -10.90907333	     12.68578939	     -5.70009419	      0.77037694	     -7.56296008	     -2.08201737	     -1.92601942
      1.20883333	     -1.63817409	      0.48727320	      0.75853286	      0.22667874	      0.91877855	      0.32829241	     28.83310288	     -2.14029708	     -8.17010291	    -60.72842591	      4.18268055	      3.33839602	      4.15226020	      0.52714454	      4.48136216	     -0.15466934	    -10.36305214	     12.64676844	     -5.66839067	      0.77536354	     -7.66190209	     -1.88241410	     -2.11142613
